<svg width="509" height="73" viewBox="0 0 509 73" fill="none" xmlns="http://www.w3.org/2000/svg">
<path d="M95.96 49H93.44C92.96 49 92.72 48.7733 92.72 48.32V27.08C92.72 26.8133 92.5867 26.68 92.32 26.68H87.28C86.8 26.68 86.56 26.4533 86.56 26V23.96C86.56 23.5067 86.8 23.28 87.28 23.28H102.12C102.6 23.28 102.84 23.5067 102.84 23.96V26C102.84 26.4533 102.6 26.68 102.12 26.68H97.08C96.7867 26.68 96.64 26.8133 96.64 27.08V48.32C96.64 48.7733 96.4133 49 95.96 49ZM117.464 49H114.944C114.49 49 114.264 48.7733 114.264 48.32V23.96C114.264 23.5067 114.49 23.28 114.944 23.28H117.464C117.917 23.28 118.144 23.5067 118.144 23.96V33.96C118.144 34.2267 118.304 34.36 118.624 34.36H127.064C127.33 34.36 127.464 34.2267 127.464 33.96V23.96C127.464 23.5067 127.69 23.28 128.144 23.28H130.704C131.157 23.28 131.384 23.5067 131.384 23.96V48.32C131.384 48.7733 131.157 49 130.704 49H128.144C127.69 49 127.464 48.7733 127.464 48.32V38.2C127.464 37.9333 127.33 37.8 127.064 37.8H118.624C118.304 37.8 118.144 37.9333 118.144 38.2V48.32C118.144 48.7733 117.917 49 117.464 49ZM158.713 49H145.913C145.459 49 145.233 48.7733 145.233 48.32V23.96C145.233 23.5067 145.459 23.28 145.913 23.28H158.713C159.139 23.28 159.353 23.5067 159.353 23.96V26C159.353 26.4533 159.139 26.68 158.713 26.68H149.593C149.273 26.68 149.113 26.8133 149.113 27.08V33.84C149.113 34.1067 149.273 34.24 149.593 34.24H157.313C157.793 34.24 158.033 34.4667 158.033 34.92V36.96C158.033 37.4133 157.793 37.64 157.313 37.64H149.593C149.273 37.64 149.113 37.7733 149.113 38.04V45.16C149.113 45.4533 149.273 45.6 149.593 45.6H158.713C159.139 45.6 159.353 45.8267 159.353 46.28V48.32C159.353 48.7733 159.139 49 158.713 49ZM192.423 49H187.783C185.809 49 184.276 48.4533 183.183 47.36C182.116 46.2667 181.583 44.7467 181.583 42.8V29.48C181.583 27.5067 182.116 25.9867 183.183 24.92C184.276 23.8267 185.809 23.28 187.783 23.28H192.423C194.369 23.28 195.889 23.8267 196.983 24.92C198.076 25.9867 198.623 27.5067 198.623 29.48V31.4C198.623 31.88 198.383 32.12 197.903 32.12H195.383C194.929 32.12 194.703 31.88 194.703 31.4V29.64C194.703 27.6667 193.743 26.68 191.823 26.68H188.343C186.423 26.68 185.463 27.6667 185.463 29.64V42.64C185.463 44.6133 186.423 45.6 188.343 45.6H191.823C193.743 45.6 194.703 44.6133 194.703 42.64V40.88C194.703 40.4 194.929 40.16 195.383 40.16H197.903C198.383 40.16 198.623 40.4 198.623 40.88V42.8C198.623 44.7467 198.076 46.2667 196.983 47.36C195.889 48.4533 194.369 49 192.423 49ZM217.944 45.6H221.424C223.371 45.6 224.344 44.6133 224.344 42.64V29.64C224.344 27.6667 223.371 26.68 221.424 26.68H217.944C216.024 26.68 215.064 27.6667 215.064 29.64V42.64C215.064 44.6133 216.024 45.6 217.944 45.6ZM222.024 49H217.384C215.411 49 213.877 48.4533 212.784 47.36C211.717 46.2667 211.184 44.7467 211.184 42.8V29.48C211.184 27.5067 211.717 25.9867 212.784 24.92C213.877 23.8267 215.411 23.28 217.384 23.28H222.024C223.997 23.28 225.531 23.8267 226.624 24.92C227.717 25.9867 228.264 27.5067 228.264 29.48V42.8C228.264 44.7467 227.717 46.2667 226.624 47.36C225.531 48.4533 223.997 49 222.024 49ZM245.974 45.6H251.614C253.534 45.6 254.494 44.6133 254.494 42.64V29.64C254.494 27.6667 253.534 26.68 251.614 26.68H245.974C245.681 26.68 245.534 26.8133 245.534 27.08V45.16C245.534 45.4533 245.681 45.6 245.974 45.6ZM241.654 48.32V23.96C241.654 23.5067 241.881 23.28 242.334 23.28H252.174C254.121 23.28 255.641 23.8267 256.734 24.92C257.854 25.9867 258.414 27.5067 258.414 29.48V42.8C258.414 44.7467 257.854 46.2667 256.734 47.36C255.641 48.4533 254.121 49 252.174 49H242.334C241.881 49 241.654 48.7733 241.654 48.32ZM285.322 49H272.522C272.069 49 271.842 48.7733 271.842 48.32V23.96C271.842 23.5067 272.069 23.28 272.522 23.28H285.322C285.749 23.28 285.962 23.5067 285.962 23.96V26C285.962 26.4533 285.749 26.68 285.322 26.68H276.202C275.882 26.68 275.722 26.8133 275.722 27.08V33.84C275.722 34.1067 275.882 34.24 276.202 34.24H283.922C284.402 34.24 284.642 34.4667 284.642 34.92V36.96C284.642 37.4133 284.402 37.64 283.922 37.64H276.202C275.882 37.64 275.722 37.7733 275.722 38.04V45.16C275.722 45.4533 275.882 45.6 276.202 45.6H285.322C285.749 45.6 285.962 45.8267 285.962 46.28V48.32C285.962 48.7733 285.749 49 285.322 49ZM318.672 49H314.392C312.419 49 310.885 48.4533 309.792 47.36C308.725 46.2667 308.192 44.7467 308.192 42.8V29.48C308.192 27.5067 308.725 25.9867 309.792 24.92C310.885 23.8267 312.419 23.28 314.392 23.28H318.672C320.645 23.28 322.165 23.8267 323.232 24.92C324.325 25.9867 324.872 27.5067 324.872 29.48V30.92C324.872 31.4 324.645 31.64 324.192 31.64H321.672C321.219 31.64 320.992 31.4 320.992 30.92V29.64C320.992 27.6667 320.032 26.68 318.112 26.68H314.952C313.032 26.68 312.072 27.6667 312.072 29.64V42.64C312.072 44.6133 313.032 45.6 314.952 45.6H318.112C320.032 45.6 320.992 44.6133 320.992 42.64V39.04C320.992 38.7733 320.845 38.64 320.552 38.64H317.312C316.859 38.64 316.632 38.4133 316.632 37.96V35.92C316.632 35.4667 316.859 35.24 317.312 35.24H324.032C324.592 35.24 324.872 35.52 324.872 36.08V42.8C324.872 44.7467 324.325 46.2667 323.232 47.36C322.139 48.4533 320.619 49 318.672 49ZM342.391 23.96V48.32C342.391 48.7733 342.164 49 341.711 49H339.191C338.737 49 338.511 48.7733 338.511 48.32V23.96C338.511 23.5067 338.737 23.28 339.191 23.28H341.711C342.164 23.28 342.391 23.5067 342.391 23.96ZM357.828 49H354.948C354.574 49 354.441 48.7733 354.548 48.32L361.508 23.96C361.641 23.5067 361.961 23.28 362.468 23.28H366.468C367.001 23.28 367.321 23.5067 367.428 23.96L374.388 48.32C374.494 48.7733 374.348 49 373.948 49H371.108C370.868 49 370.694 48.96 370.588 48.88C370.508 48.7733 370.441 48.5867 370.388 48.32L368.868 43.12H360.068L358.548 48.32C358.441 48.7733 358.201 49 357.828 49ZM364.388 27.12L360.868 39.92H368.108L364.548 27.12H364.388ZM389.502 49H387.022C386.569 49 386.342 48.7733 386.342 48.32V23.96C386.342 23.5067 386.569 23.28 387.022 23.28H389.262C389.689 23.28 389.982 23.4267 390.142 23.72L399.822 41.12H399.982V23.96C399.982 23.5067 400.209 23.28 400.662 23.28H403.142C403.595 23.28 403.822 23.5067 403.822 23.96V48.32C403.822 48.7733 403.595 49 403.142 49H400.982C400.555 49 400.209 48.7867 399.942 48.36L390.342 31.16H390.182V48.32C390.182 48.7733 389.955 49 389.502 49ZM424.702 49H422.182C421.702 49 421.462 48.7733 421.462 48.32V27.08C421.462 26.8133 421.329 26.68 421.062 26.68H416.022C415.542 26.68 415.302 26.4533 415.302 26V23.96C415.302 23.5067 415.542 23.28 416.022 23.28H430.862C431.342 23.28 431.582 23.5067 431.582 23.96V26C431.582 26.4533 431.342 26.68 430.862 26.68H425.822C425.529 26.68 425.382 26.8133 425.382 27.08V48.32C425.382 48.7733 425.156 49 424.702 49Z" fill="#122235"/>
<path fill-rule="evenodd" clip-rule="evenodd" d="M21.9251 7.58349C24.0983 3.09522 28.6967 0 34.0179 0C39.3392 0 43.9376 3.09522 46.1108 7.58348C58.9282 12.4595 68.0359 24.8608 68.0359 39.3893C68.0359 48.7371 64.2655 57.2044 58.1624 63.3531C58.1796 62.2568 58.1886 61.1295 58.1886 59.9791C58.1886 49.1021 57.387 40.2845 56.3982 40.2845C55.4094 40.2845 54.6078 49.1021 54.6078 59.9791C54.6078 62.2259 54.642 64.3849 54.705 66.3964C50.9817 69.2527 46.6508 71.3564 41.9396 72.48C41.2455 63.3285 37.9628 56.3983 34.018 56.3983C30.0731 56.3983 26.7904 63.3285 26.0963 72.48C21.3852 71.3564 17.0543 69.2527 13.331 66.3965C13.394 64.3849 13.4282 62.226 13.4282 59.9791C13.4282 49.1021 12.6266 40.2845 11.6378 40.2845C10.6489 40.2845 9.84733 49.1021 9.84733 59.9791C9.84733 61.1295 9.8563 62.2568 9.87351 63.3532C3.77045 57.2044 0 48.7372 0 39.3893C0 24.8608 9.10769 12.4595 21.9251 7.58349ZM28.6466 11.6377C29.6355 11.6377 30.437 10.8361 30.437 9.84732C30.437 8.8585 29.6355 8.0569 28.6466 8.0569C27.6578 8.0569 26.8562 8.8585 26.8562 9.84732C26.8562 10.8361 27.6578 11.6377 28.6466 11.6377ZM40.2844 9.84732C40.2844 10.8361 39.4828 11.6377 38.494 11.6377C37.5051 11.6377 36.7035 10.8361 36.7035 9.84732C36.7035 8.8585 37.5051 8.0569 38.494 8.0569C39.4828 8.0569 40.2844 8.8585 40.2844 9.84732ZM24.1707 25.0658H19.6946V21.4851H24.1707V25.0658ZM19.6946 32.2275V28.6467H29.5419V32.2275H33.1227V28.6467H41.1797V32.2275H44.7605V28.6467H48.3413V32.2275H19.6946ZM48.3413 21.4851V25.0658H40.2845V21.4851H48.3413ZM27.7515 21.4851H36.7036V25.0658H27.7515V21.4851ZM19.6946 35.8083H48.3413V38.494H27.7515V35.8084H24.1707V38.494H19.6946V35.8083ZM19.6946 42.0748H48.3413V45.6555H44.7605V42.0748H41.1797V45.6555H33.1227V42.0748H29.5419V45.6555H19.6946V42.0748ZM19.6946 49.2364H48.3413V49.2366H40.2844V49.2364H36.7036V49.2366H27.7515V49.2364H24.1707V49.2366H19.6946V49.2364Z" fill="#4EA886"/>
</svg>
